<svg
  width="32"
  height="33"
  viewBox="0 0 32 33"
  fill="none"
  xmlns="http://www.w3.org/2000/svg"
>
  <path
    d="M1.95159 10.2074C1.94252 10.0707 1.72119 8.38627 1.36418 6.01591C1.13129 4.46965 0.979027 3.06047 1.00235 1.80731C1.01008 1.3921 1.19244 1.43827 1.32863 1.49297C1.6005 1.60218 1.85391 1.70397 5.85293 1.902C9.73319 2.09416 17.3724 2.40073 21.6434 2.47016C25.9143 2.53959 26.5864 2.3443 26.9623 2.20396C27.5911 1.96915 27.7651 1.48117 28.1595 1.19084C28.504 0.937141 28.9486 0.991047 29.2182 1.04651C29.608 1.12673 29.0523 1.81676 28.9944 4.3672C28.9398 6.77224 29.002 11.4348 29.1678 15.9647C29.3337 20.4945 29.6443 24.7509 29.6955 26.9031C29.7467 29.0553 29.5292 28.9743 29.1414 28.9344C28.7537 28.8945 28.2023 28.8983 25.8202 29.3893C23.4381 29.8803 19.2419 30.8586 16.8311 31.3888C14.4204 31.9191 13.9221 31.9717 13.1958 31.9925C12.4695 32.0133 11.5302 32.0006 10.2788 31.8392C9.02727 31.6778 7.49206 31.3681 6.49063 31.1472C3.76941 30.4987 2.00845 30.0366 2.02683 29.8438C2.0504 29.7502 2.10288 29.6654 2.15695 29.5779M2.20721 29.5779L1.9135 11.0311M1.51849 9.08886C1.51849 9.08141 2.43978 8.16161 4.2538 6.28151C5.14654 5.31739 5.98282 4.33286 6.46358 3.79107C6.94435 3.24929 7.04425 3.18008 7.18841 3.06443M2.3415 13.1924C2.3415 13.1888 2.3415 13.1852 3.73702 11.9554C5.13255 10.7255 7.92361 8.26941 9.73325 6.62476C11.5429 4.98011 12.2865 4.2213 13.2258 3.28814M3.13387 18.2426C3.13011 18.2389 3.12635 18.2352 4.61499 16.8209C6.10363 15.4065 9.08477 12.5817 11.5919 10.3057C14.099 8.02978 16.0417 6.38825 18.2035 4.6359M3.16253 24.0873C3.15398 24.0955 3.26036 23.9805 6.12178 21.4157C8.8724 18.9702 14.2595 14.2022 17.8451 10.8583C21.3619 7.5786 22.9887 5.80796 24.7929 3.84408L24.899 3.72858M3.51631 29.1978C3.52357 29.1978 3.53083 29.1978 3.61659 29.1642C3.70235 29.1306 3.86639 29.0635 7.61089 25.9266C11.3554 22.7896 18.6754 16.585 23.0505 12.7671C27.4256 8.94916 28.634 7.70604 30 6.32371M10.4415 30.9965C10.4378 30.989 10.434 30.9816 12.7747 28.7953C15.1153 26.609 19.8005 22.2441 22.461 19.7306C25.1214 17.2172 25.6151 16.6874 26.1104 16.205C26.6057 15.7225 27.0878 15.3035 27.4371 14.9769C27.7864 14.6503 27.9884 14.429 28.1867 14.1873M19.875 29.5242C19.875 29.5169 19.875 29.5096 21.0117 28.3409C22.1484 27.1722 24.4218 24.8424 25.769 23.4248C27.4683 21.5724 27.9061 21.0301 28.0631 20.8518C28.1449 20.7679 28.2311 20.6973 28.3418 20.5926"
    stroke="white"
    stroke-width="2"
    stroke-linecap="round"
  />
</svg>
