<svg width="32" height="32" viewBox="0 0 32 32" fill="none" xmlns="http://www.w3.org/2000/svg">
<path d="M28.2692 16.1189C28.2909 16.0972 28.3125 16.0754 27.0445 14.6742C25.7765 13.2731 23.2183 10.4932 21.7283 8.9119C19.9274 7.00054 19.2567 6.37841 18.6937 5.66468C18.4136 5.29737 18.145 4.91966 17.7545 4.47432C17.364 4.02897 16.8598 3.52745 16.2874 3M27.9905 16.302C27.9823 16.302 27.8378 16.3398 26.6494 17.2271C25.6012 18.0765 23.6494 19.7363 21.3248 21.6533C19.0003 23.5702 16.3622 25.694 13.5641 27.9993M27.9344 15.9206L26.2671 15.9136C24.6234 15.9066 21.3482 15.8926 19.5289 15.8606C17.7097 15.8286 17.4456 15.7791 15.6759 15.7626C13.9062 15.7462 10.6389 15.7643 8.39194 15.8327C6.14495 15.9011 5.01727 16.0194 4.29252 16.0803C3.28013 16.1412 2.82962 16.0891 2.54026 16.0026C2.40506 15.9683 2.29348 15.9534 2 15.9379" stroke="white" stroke-width="2" stroke-linecap="round"/>
</svg>
