<svg width="32" height="32" viewBox="0 0 32 32" fill="none" xmlns="http://www.w3.org/2000/svg">
<path d="M6.3978 27.5572C6.3978 27.5004 6.3978 27.4437 6.40556 26.5488C6.41332 25.6538 6.42884 23.9224 6.49621 22.7895C6.59269 21.167 6.9396 20.415 7.38621 19.7451C8.07295 18.7151 8.91209 18.0687 9.69947 17.5828C10.2439 17.2468 11.1306 16.8103 11.8225 16.503C12.5144 16.1956 12.9971 16.0513 13.8462 15.9117C14.0182 15.8834 14.2046 15.8554 14.4015 15.8284M14.4015 15.8284C15.1767 15.722 16.1145 15.6293 16.9742 15.5821C17.8268 15.5354 18.5798 15.5359 19.1713 15.5579M14.4015 15.8284C15.1011 15.869 16.0449 15.896 16.8121 15.8798C17.6091 15.8629 18.2027 15.8258 18.6088 15.7291C18.8104 15.6811 18.9934 15.6306 19.1713 15.5579M14.4015 15.8284C14.3742 15.8268 14.3473 15.8252 14.3208 15.8236C13.6144 15.7804 13.2195 15.7247 12.8126 15.6673M19.1713 15.5579C19.3276 15.5637 19.4726 15.571 19.6052 15.5793C20.5656 15.6396 21.322 15.89 22.0429 16.1518C22.8104 16.4304 23.2167 17.0228 23.7187 18.0326C23.9775 18.5531 24.2203 19.4984 24.465 20.4907C24.7096 21.483 24.8882 22.5198 24.9802 23.8703C25.0722 25.2209 25.0722 26.8539 25.0722 28.5363M19.1713 15.5579C19.5562 15.4006 19.9171 15.1397 20.3917 14.5772C20.9467 13.9193 21.8861 12.7917 22.3585 12.0658C22.9742 11.1199 23.2353 10.4544 23.0226 9.49064C22.8928 8.90291 22.6511 8.10203 21.79 6.84935C21.2059 5.99978 20.283 4.77987 19.6725 4.04403C19.062 3.30818 18.7827 3.04855 18.4685 2.8537C17.8544 2.47295 17.1798 2.10059 15.9536 2.03055C15.0977 1.98166 13.7878 1.9933 12.9548 2.05229C12.1218 2.11128 11.7688 2.19803 11.432 2.35753C10.7551 2.67802 9.90003 3.18589 8.81584 4.25496C8.15099 4.91054 7.31058 5.82751 6.80589 6.45618C6.3012 7.08485 6.09842 7.40771 6.05527 7.73514C5.97353 8.35551 5.95468 8.99717 6.19607 9.66369C6.49035 10.4762 6.95401 11.4762 7.66297 12.4651C8.01631 12.9579 8.37592 13.4277 8.79206 13.7951C9.59153 14.5009 10.4247 15.1888 11.5743 15.2869C13.1108 15.4181 13.9865 15.4454 14.0049 15.4454M11.9644 7.96321V8.00502M17.1346 8.29324L17.0666 8.20048M11.7438 11.4017C11.9005 11.4211 12.4005 11.6199 13.1454 11.8124C14.1142 12.0628 15.2027 12.0461 15.918 12.0178C16.7963 11.7425 17.4412 11.3945 17.5522 11.2837C17.6029 11.2269 17.6418 11.1689 17.7337 11.0573M6.7039 27.8735C6.76745 27.8735 7.03868 27.8888 8.37469 28.1317C9.47746 28.3323 11.4215 28.7986 13.7686 29.028C16.1158 29.2574 18.8017 29.2635 20.555 29.2091C22.3084 29.1547 23.0477 29.0395 23.8156 28.8597C24.5835 28.68 25.3576 28.4391 26.1551 28.191" stroke="white" stroke-width="2" stroke-linecap="round"/>
</svg>
